<svg xmlns="http://www.w3.org/2000/svg" xmlns:xlink="http://www.w3.org/1999/xlink" viewBox="0 0 46.56 35.14"><defs><clipPath id="clip-path" transform="translate(-0.07 -2.16)"><polygon points="38.87 38.12 0.07 38.12 0 0 38.87 0.12 38.87 38.12" style="fill:none"/></clipPath></defs><title>Harmony Technology</title><g id="Layer_2" data-name="Layer 2"><g id="Layer_1-2" data-name="Layer 1"><g style="clip-path:url(#clip-path)"><g id="Robot_Hand" data-name="Robot Hand"><polygon points="40.74 1.04 37.08 0.46 36.46 1.96 35.72 4.48 33.67 3.27 31.3 2.44 28.59 2.89 26.45 3.69 25.24 3.5 26.28 1.05 24.11 1.99 23.8 2.75 23.34 3.56 20.17 5.31 19.74 5.56 18.94 5.21 18.37 5.36 18.25 6.07 15.03 8.33 14.61 7.57 12.04 9.52 12.14 10.36 10.62 11.98 11.68 12.15 12.78 10.8 15.07 9.4 14.76 9.01 16.16 8.06 16.91 8.18 16.87 8.41 18.57 7.32 18.32 7.28 18.44 6.54 20.37 6.06 20.99 6.31 21.88 6.17 23.02 6.63 25.98 5.41 28.93 3.86 30.25 3.45 32.2 3.91 34.58 4.98 35.12 5.88 36.36 5 37.7 5.25 45.62 7.51 46.47 2.18 40.74 1.04" style="fill:#222b34"/><polygon points="46.56 1.6 43.7 0.83 41.93 0.09 39.47 2.08 39.93 2.87 43.33 3.96 46.11 4.42 46.56 1.6" style="fill:#fff"/><path d="M46.08,7.26,41.5,5.81l-1.67-.46a.93.93,0,0,0-.47,0h0a.94.94,0,0,0-.59.38l-.61.83-.7,1.52,8.11,2.36Z" transform="translate(-0.07 -2.16)" style="fill:#d7dadd"/><polygon points="45.75 6.69 42.77 5.89 38.86 4.65 38.09 4.4 37.39 5.92 45.5 8.28 45.75 6.69" style="fill:#a2afbd"/><polygon points="36.46 1.96 32.1 1.27 29.61 1.78 28.59 2.89 31.3 2.44 33.67 3.27 35.72 4.48 36.46 1.96" style="fill:#60869b"/><polygon points="37.07 0.49 33.97 0 31.64 0.28 30.18 1.67 32.1 1.27 36.46 1.96 37.07 0.49" style="fill:#dadfe3"/><polygon points="31.64 0.28 29.93 0.01 29.61 1.78 30.18 1.67 31.64 0.28" style="fill:#c3d8e7"/><polygon points="29.93 0.01 26.28 1.05 25.24 3.5 28.25 1.57 29.61 1.78 29.93 0.01" style="fill:#f8ffff"/><polygon points="29.61 1.78 28.59 2.89 26.45 3.69 25.24 3.5 28.25 1.57 29.61 1.78" style="fill:#e0f0f4"/><polygon points="26.28 1.05 25.45 3.01 24.29 3.71 23.31 3.55 24.11 1.99 26.28 1.05" style="fill:#999c9e"/><polygon points="24.34 0.57 19.17 3.73 18.94 5.21 19.74 5.56 23.31 3.55 24.11 1.99 24.34 0.57" style="fill:#dfeeee"/><polygon points="23.32 2.67 19.11 4.15 18.96 5.06 23.32 2.67" style="fill:#fefdfc"/><polygon points="18.55 4.23 14.47 7.33 15.03 8.33 18.28 6.11 18.55 4.23" style="fill:#fff"/><polygon points="17.18 5.29 16.9 7.05 18.28 6.11 18.55 4.23 17.18 5.29" style="fill:#bae1e1"/><polygon points="21.12 6.36 20.37 6.06 18.44 6.54 18.32 7.28 18.7 7.34 21.12 6.36" style="fill:#e5e1e1"/><polyline points="25.98 5.41 28.93 3.86 30.25 3.45 32.28 3.93 34.58 4.98 35.12 5.88 32.11 6.15 30.61 5.17 27.74 6.57 27.67 7.01 27.39 7.17 27.27 7.93 25.68 7.05 23.02 6.63" style="fill:#f3f5f5"/><polygon points="35.12 5.88 32.11 6.15 31.39 3.72 32.28 3.93 34.58 4.98 35.12 5.88" style="fill:#e4f5f7"/><polygon points="29.54 5.69 28.4 4.13 27.74 6.57 29.54 5.69" style="fill:#c5dde7"/><polygon points="27.27 7.93 27.14 6.47 26.5 5.78 25.98 5.41 23.02 6.63 25.68 7.05 27.27 7.93" style="fill:#9fb0bf"/><polygon points="28.4 4.13 25.98 5.41 26.5 5.78 27.14 6.47 27.27 7.93 27.39 7.17 27.67 7.01 27.74 6.57 28.4 4.13" style="fill:#f3f5f5"/><polygon points="16.91 8.18 16.16 8.06 14.76 9.01 15.32 9.73 16.8 8.88 16.91 8.18" style="fill:#d2d3d3"/><polygon points="11.98 9.05 12.14 10.36 10.62 11.98 10.53 11.88 10.67 11.01 11.98 9.05" style="fill:#c0e0e1"/><polygon points="25.45 3.01 25.24 3.5 26.45 3.69 25.53 5.59 23.02 6.63 21.88 6.17 23.31 3.55 24.29 3.71 25.45 3.01" style="fill:#49494b"/><polygon points="32.11 6.15 30.6 10.68 29.54 10.51 27.7 6.82 27.74 6.57 30.61 5.17 32.11 6.15" style="fill:#1a1c21"/><polygon points="29.54 10.51 28.49 11.41 27.79 9.95 27.7 6.82 29.54 10.51" style="fill:#38373d"/><polygon points="32.4 10.96 29.54 10.51 28.49 11.41 26.83 13.36 27.52 14.27 28.36 14.69 32.4 10.96" style="fill:#eeefef"/><polygon points="32.4 10.96 27.52 14.27 28.36 14.69 32.4 10.96" style="fill:#b0b9bc"/><polygon points="28.19 10.78 27.37 10.65 27.2 11.72 25.86 13.14 26.83 13.36 28.49 11.41 28.19 10.78" style="fill:#272422"/><polygon points="28.36 14.69 27.52 14.27 26.83 13.36 24.4 13.51 23.09 15.22 23.16 15.88 25.71 14.09 26.33 14.47 28.36 14.69" style="fill:#242128"/><polygon points="28.23 14.93 27.3 14.57 26.33 14.47 25.71 14.09 23.16 15.88 23.5 16.21 24.96 16.45 28.23 14.93" style="fill:#a8b3bf"/><polygon points="27.37 10.65 27.2 11.72 25.86 13.14 25.36 13.06 27.37 10.65" style="fill:#f1f4f0"/></g><g id="Human_Hand" data-name="Human Hand"><polygon points="29.96 21.86 30.57 21.98 30.57 22.77 30.08 22.58 30.13 23.05 28.55 24.45 26.68 25.76 24.03 27.74 17.2 30.72 16.23 29.93 16.23 27.86 18.92 27.86 19.61 27.78 24.03 26.29 27.21 24.64 28.23 22.58 29.96 21.86" style="fill:#f7b5aa"/><polygon points="17.2 30.72 17.39 31.32 18.46 31.32 18.77 30.56 24.03 28.42 27.47 26.03 30.57 22.77 30.08 22.58 30.13 23.05 24.03 27.74 17.2 30.72" style="fill:#fae2cb"/><polygon points="16.68 31.42 17.39 31.32 17.2 30.72 16.23 30.72 16.68 31.42" style="fill:#f7b2a5"/><polygon points="16.68 31.42 12.55 32.69 9.42 33.63 4.89 35.02 3.27 35.14 3.06 33.92 6.46 32.45 16.23 30.72 16.68 31.42" style="fill:#fcd8b1"/><polygon points="16.23 29.93 17.2 30.72 16.23 30.72 6.56 32.44 11.99 27.27 13.94 26.88 16.23 29.93" style="fill:#fce1ce"/><polygon points="14.38 25.03 14.5 25.69 13.94 26.88 16.23 29.93 16.23 27.86 14.38 25.03" style="fill:#f8dbb5"/><polygon points="11.99 27.27 13.94 26.88 14.5 25.69 14.38 25.03 11.99 27.27" style="fill:#e08c7b"/><polygon points="15.59 26.88 19.56 26.88 19.61 27.78 18.92 27.86 16.23 27.86 15.59 26.88" style="fill:#ef777a"/><polygon points="19.56 26.88 21.61 25.98 23.66 25.48 24.11 26.25 19.61 27.78 19.56 26.88" style="fill:#c92842"/><polygon points="23.66 25.48 26.81 23.84 27.33 24.41 27.21 24.64 24.11 26.25 23.66 25.48" style="fill:#d55b5c"/><polygon points="28.23 22.58 26.81 23.84 27.33 24.41 28.23 22.58" style="fill:#dc7a7f"/><polygon points="14.38 25.03 15.48 25.67 16.75 26.88 15.59 26.88 14.38 25.03" style="fill:#8f2150"/><polygon points="15.48 25.67 15.7 23.55 14.38 25.03 15.48 25.67" style="fill:#dd7470"/><polygon points="19.02 17.54 18.77 19.64 17.82 21.32 15.7 23.55 14.38 25.03 13.04 26.29 12.55 25.67 13.88 24.61 15.59 21.73 16.48 20.68 17.49 19.08 18.63 17.75 19.02 17.54" style="fill:#f4bcb0"/><polygon points="11.45 24.41 12.78 23.31 13.88 24.61 12.55 25.67 11.45 24.41" style="fill:#de7376"/><polygon points="12.78 23.31 14.65 20.8 15.59 21.73 13.88 24.61 12.78 23.31" style="fill:#d6575e"/><polygon points="14.65 20.8 15.31 19.95 16.3 20.9 15.59 21.73 14.65 20.8" style="fill:#bf424d"/><polygon points="15.31 19.95 16.3 18.19 16.39 18.6 16.61 19.07 17.49 19.08 16.48 20.68 16.3 20.9 15.31 19.95" style="fill:#d26c6d"/><polygon points="16.3 18.19 17.2 16.9 18.02 16.9 18.63 17.75 17.49 19.08 16.61 19.07 16.39 18.6 16.3 18.19" style="fill:#e7cdba"/><polygon points="18.63 17.75 19.02 17.54 18.21 16.53 17.2 16.53 15.85 18.19 14.92 19.95 11.88 23.06 11.45 24.41 12.78 23.31 14.65 20.8 15.31 19.95 16.3 18.19 17.2 16.9 18.02 16.9 18.63 17.75" style="fill:#78154f"/><polygon points="11.88 23.06 6.87 25.81 5.05 27.86 4.62 28.61 4.32 30.06 5.28 30.83 8.1 28.02 11.45 24.41 11.88 23.06" style="fill:#a42455"/><polygon points="2.44 31 4.32 30.06 2.63 32.26 1.32 33.15 0 29.35 1.78 28.86 2.44 31" style="fill:#e77798"/><polygon points="4.32 30.06 5.28 30.83 2.85 33.11 2.63 32.26 4.32 30.06" style="fill:#db7f83"/><polygon points="1.32 33.15 3.27 35.14 3.06 33.92 2.85 33.11 2.63 32.26 1.32 33.15" style="fill:#ebb589"/><polygon points="1.32 33.15 0.76 33.11 0 32.94 0 34.97 1.32 35.14 3.27 35.14 1.32 33.15" style="fill:#fde3ca"/><polygon points="0 32.94 0 32.28 1.32 33.15 0.76 33.11 0 32.94" style="fill:#edb283"/><polygon points="0 29.35 1.32 33.15 0 32.28 0 29.35" style="fill:#d3575a"/><polygon points="2.44 31 3.73 28.98 4.61 28.7 4.32 30.06 2.44 31" style="fill:#c52a60"/><polygon points="13.04 26.29 11.99 27.27 6.56 32.44 3.06 33.92 2.85 33.11 5.28 30.83 9.09 26.88 11.45 24.41 12.55 25.67 13.04 26.29" style="fill:#f4b9b0"/><polygon points="1.78 28.86 3.73 28.98 2.44 31 1.78 28.86" style="fill:#752361"/><polygon points="0 27.49 1.78 28.86 0 29.35 0 27.49" style="fill:#73275a"/><polygon points="3.73 28.98 3.73 28.05 2.04 27.85 0 27.49 1.78 28.86 3.73 28.98" style="fill:#8b2051"/><polygon points="3.73 28.05 5.05 27.86 4.61 28.7 3.73 28.98 3.73 28.05" style="fill:#752361"/></g></g></g></g></svg>