<svg xmlns="http://www.w3.org/2000/svg" viewBox="0 0 304.94 304.94"><defs><style>.cls-1{isolation:isolate;}.cls-2{fill:#f3fafd;}.cls-2,.cls-7{mix-blend-mode:multiply;}.cls-3{fill:#b9cfca;}.cls-4{fill:#f2edd2;}.cls-5{fill:#ef6953;}.cls-6,.cls-9{fill:none;stroke-linecap:round;stroke-miterlimit:10;}.cls-6{stroke:#bfc5ac;stroke-width:0.85px;}.cls-8{fill:#f5edd3;}.cls-9{stroke:#f6f5e1;stroke-width:0.57px;}.cls-10{fill:#232a56;}</style></defs><g class="cls-1"><g id="Layer_2" data-name="Layer 2"><g id="Layer_2-2" data-name="Layer 2"><circle class="cls-2" cx="152.47" cy="152.47" r="152.47"/><polygon class="cls-3" points="135.82 93.86 134.37 102.83 141.23 98.35 141.23 86.13 146.15 86.23 145.31 84.28 140.5 82.9 143.92 81.5 142.13 77.8 134.37 76.44 138.82 71.07 137.43 68.23 139.59 70.75 140.21 70.75 146.19 77.08 144.17 68.31 141.88 58.4 149.3 72.22 150.03 54.04 152.36 72.87 158.95 59.23 155.79 79.64 163.77 70.27 159.32 80.1 169.89 71.66 163.21 80.64 163.21 94.17 174.16 96.95 163.86 85.82 178.24 86.38 166.37 80.44 181.27 75.99 190.92 71.66 172.86 71.07 205.82 44.27 167.54 51.5 166.06 40.19 160.75 52.69 160.75 25.47 149.11 43.22 134.37 28.13 133.37 45.83 119.06 41.8 135.07 65.85 124.25 69.68 134.37 75.13 120.61 77.17 133.37 82.98 120.36 88.24 135.82 93.86"/><polygon class="cls-4" points="169.06 61.27 163.41 71.07 170.08 69.25 170.08 64.06 169.66 61.83 169.06 61.27"/><polygon class="cls-4" points="160.75 52.69 160.75 61.27 166.74 60.12 166.97 59.47 161.26 52.69 160.75 52.69"/><path class="cls-4" d="M150.69,55.76l1.16,10.41,5.52-4.9L155.19,57h-.74l-.09.27a.6.6,0,0,1-1,.2l-.92-1.14Z"/><polygon class="cls-4" points="142.2 47.55 147.63 52.23 147.63 45.83 142.2 47.55"/><path class="cls-4" d="M139.37,56.45l2.83-2.23,3.34,1.12-.62,8.72-3-5.66,2.29,9.91-8.23-4,.61-.18a1.39,1.39,0,0,0,.59-2.34l0,0Z"/><polyline class="cls-4" points="138.82 71.07 134.37 76.44 142.13 77.8 138.82 71.07"/><polyline class="cls-4" points="139.59 70.75 146.61 78.9 146.19 77.08 140.21 70.75 139.59 70.75"/><path class="cls-5" d="M151.6,66.73h0a2.29,2.29,0,0,0,1.67-1.3l.39-.86,1,.55-2.42,6.54-.61-4.93"/><path class="cls-5" d="M159.41,70.59a.48.48,0,0,1-.09-.4c.28-1.31,1.83-8,4.09-7.66,2,.34.09,4-.69,5.3a4.25,4.25,0,0,1-.63.82l-1.92,1.95a.48.48,0,0,1-.76,0Z"/><path class="cls-5" d="M145.19,60.24s3,.38,2.63,2.8-1.54,1.53-1.54,1.53.1.61-.74.65l-.62-1.16Z"/><path class="cls-5" d="M152.41,56.31s-2.79-9.13,1.62-9.55,1.72,7.05,1.72,7.05l-1.39,3.44S153.52,58.72,152.41,56.31Z"/><circle class="cls-5" cx="136.11" cy="51.77" r="2.74"/><path class="cls-5" d="M137,61.68c.39.21.72.69.47,1.73-.61,1.16-1.49.93-1.49.93s-1.78-.76-.26-2.42A1.07,1.07,0,0,1,137,61.68Z"/><line class="cls-6" x1="147.17" y1="227.87" x2="157.74" y2="227.87"/><line class="cls-6" x1="147.17" y1="220.08" x2="157.74" y2="220.08"/><line class="cls-6" x1="147.17" y1="212.28" x2="157.74" y2="212.28"/><line class="cls-6" x1="147.17" y1="204.49" x2="157.74" y2="204.49"/><line class="cls-6" x1="147.17" y1="195.96" x2="157.74" y2="195.96"/><line class="cls-6" x1="147.17" y1="187.98" x2="157.74" y2="187.98"/><line class="cls-6" x1="147.17" y1="180.38" x2="157.74" y2="180.38"/><line class="cls-6" x1="147.17" y1="172.77" x2="157.74" y2="172.77"/><line class="cls-6" x1="147.17" y1="164.51" x2="157.74" y2="164.51"/><line class="cls-6" x1="147.17" y1="156.99" x2="157.74" y2="156.99"/><line class="cls-6" x1="147.17" y1="148.93" x2="157.74" y2="148.93"/><line class="cls-6" x1="147.17" y1="140.87" x2="157.74" y2="140.87"/><line class="cls-6" x1="147.17" y1="134.37" x2="157.74" y2="134.37"/><line class="cls-6" x1="147.17" y1="126.58" x2="157.74" y2="126.58"/><line class="cls-6" x1="147.17" y1="118.78" x2="157.74" y2="118.78"/><line class="cls-6" x1="147.17" y1="110.99" x2="157.74" y2="110.99"/><line class="cls-6" x1="147.17" y1="103.85" x2="157.74" y2="103.85"/><line class="cls-6" x1="147.17" y1="96.06" x2="157.74" y2="96.06"/><g class="cls-7"><polygon class="cls-8" points="163.21 77 159.32 80.1 161.25 75.84 163.21 75.47 163.21 77"/><path class="cls-5" d="M151,102.09,149.11,92l-3.79-7.71L144,81.49l11.84-1.85,2.82-3.31,2.64-.49-1.93,4.26L163.21,77v3.65l-7.6,10.22-2,6.5V261.91h2.78v16a4,4,0,0,1-8,0v-16H151Z"/><polygon class="cls-5" points="161.25 75.84 158.61 76.33 163.77 70.27 161.25 75.84"/><polygon class="cls-8" points="143.95 81.49 145.32 84.27 145.31 84.28 140.5 82.9 143.92 81.5 143.95 81.49"/><polygon class="cls-5" points="163.21 80.64 163.21 77 169.89 71.66 163.21 80.64"/><polygon class="cls-8" points="155.79 79.64 157.02 71.68 158.58 72.96 156.81 76.67 158.61 76.33 155.79 79.64"/><polygon class="cls-5" points="141.88 58.4 149.3 72.22 150.03 54.04 152.36 72.87 158.95 59.23 157.02 71.68 157 71.66 155.79 79.64 143.95 81.49 137.43 68.23 146.61 78.9 141.88 58.4"/><path class="cls-8" d="M153.66,261.91V97.36l2-6.5,7.6-10.22,0,152.56c0,5-1,6.87-2.77,9.8a12,12,0,0,1-.94,1.31l-3,3.68v13.92Z"/><path class="cls-8" d="M145.32,84.27,149.11,92,151,102.09V261.91h-2.51V248.09l-3.78-4.52a14.72,14.72,0,0,1-3.45-9.47v-148l4.92.1-.84-2Z"/></g><path class="cls-9" d="M151.28,279.94s1.7,2,3.52-1.18"/><path class="cls-10" d="M147.63,81.37l.8,10.39h1.24l3.09,3.09,6.31-12.3-4.45,4.08-.56-7.76a.25.25,0,0,0-.5,0l-1.71,10.39Z"/></g></g></g></svg>