<?xml version="1.0" encoding="utf-8" standalone="yes"?><!-- Generator: Adobe Illustrator 22.1.0, SVG Export Plug-In . SVG Version: 6.00 Build 0)  --><svg xmlns="http://www.w3.org/2000/svg" xmlns:xlink="http://www.w3.org/1999/xlink" version="1.1" id="Layer_1" x="0px" y="0px" viewBox="0 0 330.7 330.8" style="enable-background:new 0 0 330.7 330.8;zoom: 1;" xml:space="preserve" width="44px"><style type="text/css">
        .st0{fill:#01A651;}
        .st1{fill:#8CC53F;}
</style><g><path class="st0" d="M208.9,121.3c3.4,0.4,6.9,0.5,10.3,0.5c12.8,0,25.7,0,38.5,0c14.1,0,26.6,8.8,31.5,21.9 c0.9,2.5,0.6,4.4-1.4,6.4c-8.6,8.5-8.6,22.3,0,30.8c2.1,2.1,2.5,4.2,1.4,6.8c-1.5,3.7-3.8,6.8-6.5,9.7c-3.2,3.6-6.9,6.7-11.1,9 c-1.5,0.9-3.1,1.5-4.9,1.8c-1.1,0.2-2-0.1-2.7-1.1c-2.5-3.5-5.3-6.8-8.3-9.9c-0.2-0.2-0.4-0.4-0.6-0.6c-1-1.3-0.5-2.4,1.1-2.6 c1.7-0.2,3.4,0,5.1-0.2c8-0.8,13.1-5.5,14.5-13.4c1.3-7.5,1.4-14.9,0.8-22.5c-0.2-2.8-0.2-5.6-0.9-8.3c-1.7-7-7.2-11.8-14.5-12.8 c-1.7-0.2-3.3-0.3-5-0.3c-11.6-0.1-23.3-0.1-34.9-0.2c-1.3,0-2.4,0.2-3.1,1.5c-0.7,1.2-1.6,1.2-2.8,0.1c-2.7-2.6-5.3-5.2-7.9-7.9 c-1.2-1.2-2.5-2.2-3.9-3.1c0-0.5,0-1,0-1.5c-0.2-1.5,0.4-2.7,1.8-3.4C206.5,121.4,207.7,121.5,208.9,121.3z"></path><path class="st1" d="M209.1,209.4c-0.3,8.2-0.3,16.3-0.3,24.5c0,5.8,0,11.5,0.1,17.3c0.1,4.1,0.2,8.1-0.5,12.2 c-1.5,8.8-6,15.8-13.1,21.2c-2.3,1.7-4.6,3.3-7.4,4.2c-2.7,0.9-5.2,0.5-7.5-1.4c-3.5-2.9-7.3-5.2-11.8-6c-5.4-1-10.3,0.4-14.8,3.3 c-1.5,1-2.9,2.1-4.3,3.3c-1.6,1.5-3.5,1.8-5.6,1c-9.7-3.6-16.5-10.1-20.3-19.8c-1.5-3.7-0.7-5.7,2.9-7.5c2.7-1.4,4.5-3.8,6.5-6 c0.5-0.5,0.8-1.3,1.7-1.2c1.1,0.1,1.5,0.8,1.4,1.9c-0.2,2.9,0.2,5.7,1.4,8.4c3,7.2,8.6,11,16.3,11.4c5.2,0.3,10.5,0.4,15.7,0.2 c3.9-0.1,7.9,0.1,11.8-0.8c7.6-1.9,12.6-7.8,13.1-15.6c0.3-3.8,0.2-7.6,0.2-11.4c0-9.3,0-18.6,0-27.8c0-1.2-0.5-2-1.6-2.6 c-1.6-0.7-1.7-1.4-0.5-2.6c3.4-3.5,6.9-6.9,10.5-10.1c0.5,2.1,1.9,3.2,4,3.6C207.8,209.2,208.4,209.3,209.1,209.4z"></path><path class="st0" d="M121.5,208.9c-4.9,0-9.8-0.1-14.7-0.1c-7.4,0-14.9-0.1-22.3-0.1c-3.2,0-6.4,0-9.6,0.2 c-6.7,0.4-12.9-1.5-18.5-5.1c-6.3-4-11.1-9.3-14.4-16c-0.3-0.6-0.5-1.2-0.7-1.8c-0.6-1.7-0.3-3.2,1.1-4.5c3.8-3.5,6-7.9,6.6-13 c1-7.6-0.9-14.3-6.8-19.6c-1.5-1.3-1.7-2.6-0.8-4.6c1.6-3.4,3.6-6.5,5.9-9.4c3-3.7,6.5-7,10.5-9.8c4.7-3.3,7.5-2.9,11.1,1.5 c1.6,2,3.5,3.6,5.1,5.6c0.4,0.5,1.2,0.8,1.8,1.2c0.6,0.4,1,0.9,0.9,1.7c-0.2,0.9-0.7,1.4-1.6,1.6c-0.3,0-0.6,0.1-1,0 c-7.8-1-16.5,3.7-18.8,13.2c-1.9,7.6-2.1,15.2-1.3,23c0.4,3.4,0.7,6.8,1.7,10.1c1.9,6.4,6.4,9.8,12.8,10.9c2.1,0.4,4.3,0.5,6.4,0.5 c9.3,0.1,18.5,0.1,27.8,0c1.7,0,3.4,0,5,0.2c2.2,0.3,4-0.3,5.1-2.5c0.4-0.8,1.3-0.9,1.9-0.2c2.2,3,5.2,5.1,7.8,7.8 c1.1,1.2,2.2,2.3,2.9,3.8c-2.1,0.1-3,0.8-3.5,2.9C121.7,207.3,121.6,208.1,121.5,208.9z"></path><path class="st1" d="M121.7,121.3c0-13.3,0.2-26.6,0-39.9c-0.1-3.8-0.3-7.7,0.3-11.5c1.3-9.2,5.8-16.6,13-22.5c2.5-2,5.2-3.7,8-5.3 c2.7-1.5,4.1-1.4,6.4,0.6c2.5,2,5.1,3.9,8,5.3c5.5,2.6,10.9,2.4,16.3-0.2c2.9-1.4,5.5-3.1,7.9-5.1c1.6-1.4,3.3-1.7,5.3-0.9 c10.2,4,17.1,11.3,20.8,21.6c0.7,2.1,0.6,2.5-1.2,3.8c-3.6,2.7-6.9,5.7-10.1,8.9c-0.3,0.2-0.5,0.5-0.8,0.8 c-0.5-0.9-0.8-1.6-0.8-2.5c0.7-9.9-7.1-18.1-16.1-19.9c-2.6-0.5-5.2-0.3-7.8-0.2c-5,0.1-10,0-15,0c-8.5,0-15.7,4.8-18.5,12.3 c-1.1,2.8-1.5,5.7-1.5,8.7c0,9.2,0,18.3,0,27.5c0,2.2,0.2,4.5,0,6.7c-0.1,0.7,0.3,1.1,0.7,1.6c2.3,2.5,2.3,4.2-0.3,6.4 c-2.4,2.1-4.4,4.4-6.7,6.5c-0.3,0.2-0.5,0.6-0.8,0.7c-0.9-1.8-2.4-2.6-4.3-2.7C123.5,121.5,122.6,121.5,121.7,121.3z"></path><path class="st0" d="M21.3,143.4c12,0,22.1,10.1,22.1,22c0,11.8-9.9,21.9-21.6,21.8c-12-0.1-22-9.1-21.9-21.4 C0.1,153.5,9.6,143.4,21.3,143.4z"></path><path class="st0" d="M308.8,187.3c-10.9,0-20.1-8.6-21-19.6c-0.6-7.7,1.7-14.3,7.6-19.4c7.2-6.3,17.9-6.5,26.1-0.7 c7.5,5.3,10.8,14.4,8.6,23.3c-2.2,8.6-9.5,15-18.4,16.1C310.7,187.2,309.7,187.3,308.8,187.3z"></path><path class="st1" d="M144,21.8C144,10,153.6,0,164.9,0c10.2,0,22.1,8.8,21.9,21.2c-0.1,12.5-9.6,22.4-21.6,22.4 C153.5,43.6,144,33.8,144,21.8z"></path><path class="st1" d="M165.6,287.3c3.2-0.1,6.1,0.8,8.8,2.3c5,2.8,8.7,6.7,11,11.9c2.7,6.3,1.6,12.4-1.7,18 c-4.1,7.2-10.4,11.1-18.8,11.2c-3.4,0.1-6.5-1.3-9.4-3.1c-4.3-2.6-7.9-5.9-9.9-10.4c-3.4-7.7-2-15,2.8-21.6 C152.6,290,158.7,287.5,165.6,287.3z"></path><path class="st0" d="M121.7,121.3c0.9,0.2,1.8,0.3,2.7,0.3c1.9,0.1,3.4,0.9,4.3,2.7c-0.8,0.8-1.3,1.7-1.3,2.8 c0.2,7-0.2,14.1-0.5,21.1c-0.2,5.6,0.1,11.2,0.4,16.8c0.2,4.3,0,8.6,0,12.8c0,0.7,0.1,1.4,0,2c-0.1,1.2-0.9,1.6-2,1.1 c-0.6-0.3-1.1-0.7-1.5-1.1c-2.6-2.6-5.2-5.2-7.9-7.7c-2.4-2.1-3.5-4.8-3.5-8c0-4.5,0.1-9,0.1-13.6c0-3.3,0-6.6,0-9.8 c0-0.6,0-1.1-0.1-1.7c-0.2-1.8-1.2-2.6-3-2.6c-1,0-1.9,0.2-2.9,0.3c-5.2,0.4-9.2-1.7-12.4-5.7c-2-2.5-4.2-4.7-6.8-6.6 c-0.6-0.4-1-0.9-0.8-1.7c0.3-0.8,0.8-1.3,1.7-1.3c0.8,0,1.6,0.1,2.4,0.1c7.9,0,15.8,0,23.6,0C116.8,121.7,119.2,121.4,121.7,121.3z"></path><path class="st0" d="M209.1,209.4c-0.7-0.1-1.3-0.2-2-0.3c-2.1-0.3-3.5-1.5-4-3.6c0.8-2.9,0.5-5.8,0.5-8.7c0-12.6,0-25.2,0.1-37.8 c0-2.4,0-4.9-0.1-7.3c0-0.7,0-1.4,0.7-1.8c0.7-0.4,1.3-0.1,1.9,0.4c1.6,1.2,2.8,2.7,4.2,4.1c1.3,1.3,2.5,2.7,3.9,3.8 c2.8,2.2,4,5.2,3.9,8.6c-0.1,3.6-0.1,7.3-0.1,10.9c0,3.9,0,7.8,0,11.7c0,0.6,0,1.2,0.1,1.8c0.3,2.6,1.8,3.8,4.4,3.3 c6.3-1.2,11.2,0.9,15,5.9c1.3,1.7,3,3.2,4.7,4.6c0.3,0.3,0.6,0.5,0.9,0.8c0.6,0.6,0.8,1.3,0.5,2.2c-0.4,0.8-1.1,1.1-1.9,1 c-7.7-0.3-15.3-0.2-23-0.2C215.5,208.9,212.3,209.1,209.1,209.4z"></path><path class="st1" d="M121.5,208.9c0.1-0.8,0.2-1.7,0.4-2.5c0.5-2,1.4-2.7,3.5-2.9c5.5,0,11,0,16.6,0c12.5,0,25,0,37.6,0 c0.5,0,1.1-0.3,1.4,0.5c0.3,0.7,0,1.2-0.5,1.7c-3,3-6.1,5.9-8.8,9.2c-2.3,2.7-5.3,3.6-8.8,3.6c-3.3,0-6.6-0.1-9.8-0.1 c-3.8,0-7.6,0-11.4-0.2c-1,0-2-0.1-3,0.2c-2.1,0.5-3.1,1.9-2.8,4c0.2,1.8,0.7,3.6,0.5,5.5c-0.4,3.2-2.1,5.7-4.5,7.7 c-2.6,2.1-4.8,4.7-7.1,7.1c-0.1,0.1-0.2,0.2-0.3,0.4c-0.6,0.6-1.3,0.8-2.1,0.5c-0.8-0.4-0.9-1-0.9-1.8c0.5-6.2,0.4-12.4,0.5-18.6 C121.9,218.4,121.7,213.7,121.5,208.9z"></path><path class="st1" d="M208.9,121.3c-1.2,0.2-2.5,0.2-3.6,0.8c-1.4,0.7-1.9,1.9-1.8,3.4c0.1,0.5,0,1,0,1.5c-10.4,0-20.7,0-31.1,0 c-7.4,0-14.7,0-22.1,0c-0.4,0-1,0.2-1.2-0.1c-0.2-0.5,0.3-0.8,0.6-1.2c1.8-2.6,4.2-4.5,6.5-6.7c1-0.9,1.9-1.9,2.7-2.9 c1.8-2.3,4.2-3.5,7.2-3.5c8.1,0,16.2,0.1,24.2,0.1c3.8,0,4.2-0.4,4.2-4.1c0-2.4,0-4.7,0-7.1c0-1.5,0.5-2.8,1.6-3.9 c3.2-3.2,6.3-6.3,9.5-9.5c0.5-0.5,0.9-0.9,1.5-1.1c1.3-0.5,1.9,0,1.9,1.3c0,1-0.1,2.1-0.2,3.1c-0.5,8.6-0.2,17.3-0.1,25.9 C209,118.7,208.9,120,208.9,121.3z"></path><path class="st0" d="M280.4,66.3c0,10.4-7.6,18.8-16.5,19.6c-4.1,0.4-7.8-1.1-11-3.6c-4.5-3.6-7.5-8.1-7.5-14.1 c-0.1-6.1,2.8-10.8,7.5-14.4c5.4-4.1,11.3-5,17.4-1.9C276.6,55.2,280.1,60.5,280.4,66.3z"></path><path class="st0" d="M67.9,245.3c9.9,0.1,17.5,7.9,17.4,17.9c-0.1,9.5-8.4,17.5-17.8,17.3c-8.9-0.1-17.3-9.1-17.2-18.4 C50.3,253.2,58.7,245.2,67.9,245.3z"></path><path class="st1" d="M67.9,85.7 c-9.4,0 -17.5,-8.3 -17.5,-17.9 c0,-9.3 8.2,-17.6 17.3,-17.5 c9.2,0.1 17.5,8.1 17.6,17.7 C85.5,77.2 76.9,85.7 67.9,85.7  z "></path><path class="st1" d="M280.2,262.3c0.2,9.8-8.3,18.5-18.4,18c-8.8-0.4-16.7-9.2-16.4-18.2c0.3-8.3,10.1-17.1,18.6-16.8 C271.7,245.7,281,254.7,280.2,262.3z"></path><path class="st0" d="M93.8,250.5c2,1,3.9,2.1,5.7,3c2.3,1.1,4.8,2,7.4,2.4c4.2,0.7,7.9-0.5,11.4-2.7c3.5-2.3,6.3-5.2,9.2-8.2 c3.8-3.8,7.6-7.6,11.5-11.5c2.5-2.6,5.1-5.1,7.5-7.7c3.1-3.4,6.6-5.2,11.3-4.6c0.5,0.1,1-0.1,1.4,0c1.4,0.1,2,1.2,1.3,2.4 c-0.3,0.4-0.6,0.7-0.9,1.1c-10.6,10.5-21.1,21.1-31.7,31.6c-6.2,6.1-13.7,8.5-22.3,7.9c-1.4-0.1-2.8-0.3-4.2-0.5 c-4-0.8-6.2-3.2-7-7.1C94,254.6,93.9,252.7,93.8,250.5z"></path><path class="st0" d="M236.7,80.7c-2.2-1.9-4.3-3.5-6.8-4.4c-8-2.9-15.1-1.6-21.3,4.3c-7.4,7.1-14.7,14.3-21.9,21.7 c-1.6,1.6-3,3.4-4.8,4.7c-2.1,1.5-4.3,2.3-6.9,2.2c-1,0-2.1-0.1-3.1,0c-0.8,0.1-1.4-0.2-1.7-1c-0.3-0.8,0-1.3,0.6-1.8 c10.6-10.2,21-20.8,31.3-31.3c7.3-7.4,16.2-9.5,26.1-8.1c1.8,0.2,3.4,1,5.1,1.8c2.2,1.1,3.3,2.8,3.4,5.1 C236.8,76.1,236.7,78.3,236.7,80.7z"></path><path class="st1" d="M250.6,237.5c0.2-0.9,0.7-1.5,1.1-2.2c2.5-3.9,4.4-7.9,4.5-12.7c0.1-4.9-1.8-9.1-4.8-12.9 c-2.2-2.8-4.9-5.1-7.4-7.5c-5.1-4.9-10-10-14.9-15.1c-1.5-1.5-2.9-3.2-4.5-4.6c-1.1-1.1-1.7-2.4-2-3.8c-0.5-2.2-0.9-4.4-0.7-6.6 c0.1-1.5,1.1-2,2.5-1.4c0.6,0.3,1,0.7,1.3,1.2c0.8,1.4,1.8,2.5,3,3.6c9,8.8,18.1,17.6,27,26.6c2.9,3,5.5,6.2,7.1,10.2 c2.8,7.1,2.1,14.2-0.5,21.2c-0.6,1.6-1.9,2.5-3.6,2.6c-2.5,0.1-4.8,0.7-7.2,1.3C251.2,237.4,251,237.4,250.6,237.5z"></path><path class="st1" d="M80.9,92.9c-1.3,2.1-2.5,3.8-3.6,5.7c-4.4,7.3-3.6,16.5,2,22.5c2.4,2.5,4.8,4.9,7.2,7.4 c6,6.3,12.1,12.4,18.6,18.2c3.1,2.8,4,6.5,3.9,10.5c0,0.6-0.1,1.1-0.1,1.7c0,0.7-0.3,1.1-0.9,1.4c-0.7,0.3-1.1,0-1.6-0.5 c-1.8-1.9-3.6-3.7-5.5-5.5c-9-9-18.1-17.9-27-27c-7-7.2-9.8-19.9-5.3-29.3c1.2-2.4,2.7-3.7,5.3-3.4c1.5,0.1,2.9-0.2,4.3-0.8 C79,93.4,79.8,93.2,80.9,92.9z"></path><path class="st0" d="M222.5,160c-1.2,0.1-2.1-0.5-2.9-1.2c-2.5-2-4.7-4.4-7-6.7c-6.2-6.2-12.4-12.4-18.5-18.6 c-0.3-0.3-0.7-0.7-0.9-1.1c-0.6-1,0-2.3,1.2-2.3c1.8,0.1,3.5-0.3,5.2-0.1c2.6,0.4,4.7,1.6,6.6,3.4c4.5,4.6,9.1,9.2,13.6,13.8 c2.3,2.4,3,2.3,5.5,0.2c1.8-1.6,3.3-3.4,5-5.2c2-2.1,4.4-3.1,7.4-2.3c0.9,0.2,1.8-0.1,2.7-0.2c0.9-0.1,1.7-0.1,2.1,0.9 c0.4,0.9,0.1,1.7-0.7,2.4c-5.3,4.4-9.8,9.6-14.8,14.3c-0.8,0.8-1.7,1.6-2.7,2.1C223.6,159.8,223.1,160,222.5,160z"></path><path class="st0" d="M86.8,190.8c2.4-2.6,4.8-5.1,7.3-7.6c3.9-3.9,7.9-7.8,11.9-11.7c0.2-0.2,0.3-0.3,0.5-0.5 c1.4-1.3,2.5-1.3,3.9,0c3.1,2.8,6,5.9,8.9,8.9c5.7,5.9,11.2,12,17.4,17.3c0.3,0.2,0.5,0.5,0.7,0.8c0.7,1.1,0.3,2.3-1,2.4 c-5,0.5-9.5-0.1-13.1-4.4c-3.8-4.6-8.4-8.6-12.7-12.7c-2.5-2.4-3.6-2.2-5.8,0.5c-0.6,0.8-1.2,1.6-1.8,2.4c-2.2,2.9-5.2,4.6-8.8,4.9 C91.7,191.2,89.1,191,86.8,190.8z"></path><path class="st1" d="M200.3,197.5c0,1.5-0.1,3.2-0.6,4.9c-0.5,1.5-1.4,2.8-2.6,3.8c-2.9,2.3-5.5,5-8.1,7.6 c-1.8,1.9-3.7,3.7-5.5,5.5c-2.1,2.1-2.1,3.1-0.3,5.3c1.7,2,3.6,3.7,5.6,5.4c1.2,1.1,2.4,2.2,2.5,3.8c0.1,2.4,0.2,4.9-0.3,7.3 c-0.3,1.6-1.4,1.9-2.5,0.7c-5.7-5.8-11.4-11.6-17.1-17.5c-1.8-1.8-1.7-2.8,0.2-4.6c2.1-1.9,4.1-4,6.1-6c6.5-6.5,13.1-13,19.6-19.5 c0.2-0.2,0.3-0.3,0.5-0.5c0.5-0.4,1-0.9,1.7-0.5c0.7,0.3,0.8,1,0.8,1.6C200.3,195.7,200.3,196.5,200.3,197.5z"></path><path class="st1" d="M140.6,88c3.3,3.2,6.5,6.3,9.7,9.4c3,2.9,6,5.8,9,8.6c1.9,1.8,1.9,2.6,0.1,4.4c-8.5,8.5-17,17-25.4,25.4 c-0.6,0.6-1.1,1.2-1.9,1.5c-0.8,0.3-1.4,0.2-1.5-0.7c-0.4-4.7-0.5-9.3,3.7-12.7c2.9-2.4,5.5-5.3,8.1-8c1.4-1.5,2.9-2.8,4.4-4.2 c0.2-0.2,0.4-0.4,0.6-0.6c2.3-2.3,2.2-4-0.3-6.1c-2.1-1.7-4.1-3.4-5.5-5.6C139.4,95.9,139.2,92.1,140.6,88z"></path><path class="st0" d="M66,223.3c0.4-2.8,0.7-6,1.7-8.9c0.6-1.5,1.7-2.4,3.3-2.5c1.7-0.1,3.3,0.3,4.9,0.9c1.1,0.4,1,1.3,0.5,2.1 c-1.7,3.3-1.9,6.8-1.5,10.4c0.4,4,2.1,7.4,5.1,10.1c0.6,0.5,1.1,1,0.6,1.8c-0.5,0.9-1.3,0.8-2,0.4c-2.2-1.2-4.4-1.7-6.9-1.7 c-1.7,0-2.8-1-3.3-2.7c-0.8-2.7-1.9-5.2-2.3-8C66.1,224.7,66.1,224.1,66,223.3z"></path><path class="st0" d="M250.2,92.4c2.7,1.7,5.6,2.1,8.6,2.2c1.6,0.1,2.6,1.2,3.4,2.6c1,1.8,1.4,3.7,1.7,5.7c0.6,4,0.9,7.9-0.1,11.9 c-0.8,3.2-2.7,4.4-6,3.7c-0.8-0.2-1.6-0.4-2.3-0.5c-1.1-0.2-1.4-1-1.2-2c0.1-0.5,0.3-0.9,0.4-1.4c2.2-5.1,1.6-10.1-0.9-15 c-0.8-1.5-1.7-3-2.8-4.3C250.4,94.6,249.9,93.7,250.2,92.4z"></path><path class="st1" d="M237.1,249.8c-0.4,3.2-0.6,6.2-1.3,9c-0.4,1.7-1.5,2.8-3.2,3.4c-5.6,1.9-11.3,2.4-17.1,1.1 c-2.2-0.5-3.1-1.7-3.1-4c0-1.1,0.2-2.1,0.4-3.2c0.4-1.8,1.3-2.3,3-1.5c2.5,1.2,5.2,1.4,7.9,1.3c3.8-0.1,7.2-1.3,10.1-3.8 C234.8,251.4,235.9,250.7,237.1,249.8z"></path><path class="st1" d="M94,79.9c0.3-2.4,0.2-4.7,0.6-6.9c0.4-2.4,1.7-4,4-4.7c5.2-1.5,10.5-1.9,15.9-1.2c2.7,0.4,3.9,1.8,3.8,4.6 c0,1.2-0.2,2.3-0.1,3.5c0.1,1.1-0.7,1.6-2,1.2c-1.7-0.6-3.3-1.1-5.1-1.3c-5.8-0.9-11,0.6-15.8,3.9C95,79.2,94.6,79.5,94,79.9z"></path></g></svg>