<?xml version="1.0" encoding="utf-8"?>
<!-- Generator: Adobe Illustrator 22.1.0, SVG Export Plug-In . SVG Version: 6.00 Build 0)  -->
<svg version="1.1"
	 id="Layer_1" inkscape:version="0.48.4 r9939" sodipodi:docname="merix_horizontal.svg" xmlns:cc="http://creativecommons.org/ns#" xmlns:dc="http://purl.org/dc/elements/1.1/" xmlns:inkscape="http://www.inkscape.org/namespaces/inkscape" xmlns:rdf="http://www.w3.org/1999/02/22-rdf-syntax-ns#" xmlns:sodipodi="http://sodipodi.sourceforge.net/DTD/sodipodi-0.dtd" xmlns:svg="http://www.w3.org/2000/svg"
	 xmlns="http://www.w3.org/2000/svg" xmlns:xlink="http://www.w3.org/1999/xlink" x="0px" y="0px" viewBox="-287 366 225 70"
	 style="enable-background:new -287 366 225 70;" xml:space="preserve">
<style type="text/css">
	.st0{fill:#FFFFFF;}
</style>
<g id="g5">
	<path id="path12" inkscape:connector-curvature="0" class="st0" d="M-255.7,434.7c-1.1,0-2.2-0.3-3-0.7l-24.3-14
		c-1.7-1-3-3.2-3-5.2v-28.1c0-2,1.3-4.2,3-5.2l24.3-14c1.7-1,4.4-1,6,0l24.3,14c1.7,1,3,3.2,3,5.2v28.1c0,2-1.3,4.2-3,5.2l-24.3,14
		C-253.6,434.5-254.6,434.7-255.7,434.7L-255.7,434.7z M-255.7,369.8c-0.6,0-1.1,0.1-1.5,0.3l-24.3,14c-0.7,0.4-1.5,1.7-1.5,2.5
		v28.1c0,0.9,0.7,2.1,1.5,2.5l24.3,14c0.7,0.4,2.2,0.4,2.9,0l24.3-14c0.7-0.4,1.5-1.7,1.5-2.5v-28.1c0-0.9-0.7-2.1-1.5-2.5l-24.3-14
		C-254.6,369.9-255.2,369.8-255.7,369.8L-255.7,369.8z"/>
	<path id="path19" inkscape:connector-curvature="0" class="st0" d="M-264.5,406.7l-1.7-8.4h6.8c0.8,0,1.5,0.5,1.7,1.2l1.5,7.1h3.8
		l-1.6-7.9l0,0c0-0.2-0.1-0.3-0.2-0.4h6.7c0.8,0,1.5,0.5,1.7,1.2l1.5,7.1h3.8l-1.6-7.9l0,0c-0.6-2.4-2.8-4.1-5.3-4.1h-23.1l2.5,12
		L-264.5,406.7L-264.5,406.7z"/>
</g>
<g id="g21">
	<path id="path23" inkscape:connector-curvature="0" class="st0" d="M-197.5,396.2c-1.4,0-3.6,1-3.9,1.1c0,0-0.5,0.2-1,0.6
		c-0.6-1-1.6-1.7-2.8-1.7c-1.4,0-3.6,1-3.9,1.1c0,0-0.2,0.1-0.4,0.2v-1.3h-2.6v5.8v6.5h2.6V402c0-1.8,1.1-2.2,1.3-2.3
		c0.9-0.4,2.4-0.9,3-0.9c0.4,0,0.8,0.5,0.8,1.3v2v6.5h2.6V402c0-1.8,1.1-2.2,1.3-2.3c0.9-0.4,2.4-0.9,3-0.9c0.4,0,0.8,0.5,0.8,1.3
		v8.5h2.6V400C-194.1,397.9-195.6,396.2-197.5,396.2L-197.5,396.2z"/>
	<path id="path25" inkscape:connector-curvature="0" class="st0" d="M-71.6,396.2H-76c-2.2,0-3.9,1.6-3.9,3.5v4.7v1.2
		c0,1.9,1.8,3.5,3.9,3.5h4.4c2.2,0,3.9-1.6,3.9-3.5v-1.2v-4.7C-67.6,397.7-69.4,396.2-71.6,396.2z M-70.2,405.5
		c0,0.4-0.5,0.9-1.3,0.9H-76c-0.8,0-1.3-0.5-1.3-0.9v-1.2v-4.7c0-0.4,0.5-0.9,1.3-0.9h4.4c0.8,0,1.3,0.5,1.3,0.9v4.7V405.5z"/>
	<path id="path27" inkscape:connector-curvature="0" class="st0" d="M-180.3,405.6c-0.2,0.2-0.6,0.4-0.9,0.4h-5.6
		c-0.7,0-1.3-0.6-1.3-1.3v-0.4h5.6c2.1,0,3.9-1.6,3.9-3.5v-1.2c0-1.9-1.7-3.5-3.9-3.5h-4.3c-2.1,0-3.9,1.6-3.9,3.5v1.1v0.1v3.9
		c0,2.1,1.7,3.9,3.9,3.9h5.6c1,0,2-0.4,2.7-1.1L-180.3,405.6L-180.3,405.6z M-188.1,400.7v-1.1c0-0.5,0.6-0.9,1.3-0.9h4.3
		c0.7,0,1.3,0.4,1.3,0.9v1.2c0,0.5-0.6,0.9-1.3,0.9h-5.6V400.7L-188.1,400.7L-188.1,400.7z"/>
	<path id="path29" inkscape:connector-curvature="0" class="st0" d="M-135.1,401.1h-4.8c-0.7,0-1.2-0.4-1.2-0.8v0V400v-0.4
		c0-0.4,0.5-0.8,1.3-0.8h5.2c0.4,0,0.7,0.1,1,0.3l1.6-2c-0.7-0.6-1.7-0.9-2.6-0.9h-5.2c-2.1,0-3.9,1.5-3.9,3.4v0.4v0.2v0
		c0,1.9,1.7,3.4,3.9,3.4h4.8c0.7,0,1.2,0.4,1.2,0.8v0v0.1v0.5c0,0.4-0.5,0.8-1.3,0.8h-5.9c-0.4,0-0.7-0.1-1-0.3l-1.6,2
		c0.7,0.6,1.7,0.9,2.6,0.9h5.9c2.1,0,3.9-1.5,3.9-3.4v-0.5v-0.1v0C-131.3,402.6-133,401.1-135.1,401.1L-135.1,401.1z"/>
	<path id="path31" inkscape:connector-curvature="0" class="st0" d="M-171.4,396.2c-2.1,0-3.9,1.6-3.9,3.5v1.1v0.1v7.7h2.6v-7.7
		v-0.1v-1.1c0-0.5,0.6-0.9,1.3-0.9h4v-2.6L-171.4,396.2L-171.4,396.2z"/>
	<rect id="rect33" x="-164.3" y="396.2" class="st0" width="2.6" height="12.3"/>
	<path id="path35" inkscape:connector-curvature="0" class="st0" d="M-124.5,406c-0.7,0-1.3-0.4-1.3-0.9V404V404v-5.1h2.7v-2.6h-2.7
		v-3.4h-2.6V404v0.1v1.1c0,1.9,1.7,3.5,3.9,3.5h3.9V406L-124.5,406L-124.5,406z"/>
	<path id="path37" inkscape:connector-curvature="0" class="st0" d="M-108,396.2v0.4v5.8c0,2.4-1.1,2.7-1.4,2.8
		c-0.9,0.2-3.6,0.8-4.7,0.8c-0.5,0-0.9-0.6-0.9-1.3v-8.5h-2.6v8.5c0,2.1,1.6,3.9,3.5,3.9c1.6,0,4.9-0.8,5.1-0.9c0.3,0,0.6-0.1,1-0.3
		v1.1h2.6v-6.2v-5.8v-0.4L-108,396.2L-108,396.2z"/>
	<path id="path39" inkscape:connector-curvature="0" class="st0" d="M-92.6,392.5v4.5c-0.3-0.1-0.5-0.2-0.8-0.2
		c-0.2,0-3.7-0.5-5.3-0.5c-1.9,0-3.5,1.7-3.5,3.9v1.5v2.3v0.7c0,2.1,1.6,3.9,3.5,3.9c1.6,0,5.2-0.4,5.2-0.4c0.2,0,0.5-0.1,0.8-0.2
		v0.7h2.6v-2.7v-2.9v-1V399v-6.5L-92.6,392.5L-92.6,392.5z M-93.7,405.5c0,0-3.6,0.4-5,0.4c-0.5,0-0.9-0.6-0.9-1.3V404v-2.3v-1.5
		c0-0.7,0.4-1.3,0.9-1.3c1.4,0,5,0.4,5,0.4c0.4,0.1,1.1,0.7,1.1,2.6v1C-92.6,404.8-93.2,405.4-93.7,405.5L-93.7,405.5z"/>
	<polygon id="polygon41" class="st0" points="-152.4,400.3 -155.8,396.2 -159.1,396.2 -154,402.3 -159.1,408.5 -155.8,408.5 
		-152.4,404.4 -149,408.5 -145.7,408.5 -150.7,402.3 -145.7,396.2 -149,396.2 	"/>
	<rect id="rect43" x="-86.2" y="396.2" class="st0" width="2.7" height="12.3"/>
</g>
</svg>
